<svg width="254" height="94" viewBox="0 0 254 94" fill="none" xmlns="http://www.w3.org/2000/svg">
<path d="M216.205 90.8807C256.243 86.5744 254.595 61.361 247.193 31.5291C239.791 1.69712 212.617 3.58301 198.908 2.96436L124.813 3.37276C124.813 3.37276 68.4231 3.88328 56.2099 4.43583C42.4969 5.04847 14.9499 1.70313 7.54761 31.5351C0.145426 61.3668 -1.50185 86.5803 38.5362 90.8865C71.5235 94.4365 99.5794 93.9802 129.314 93.9802C159.049 93.9802 216.21 90.8865 216.21 90.8865L216.205 90.8807Z" fill="#003624"/>
<path d="M110.632 88.5678C88.0961 88.5678 63.8232 88.3418 36.6506 85.6304C20.3067 84.0002 9.73407 79.127 4.32523 70.7336C-2.77822 59.7027 0.088707 43.8038 4.24531 28.2617C7.25616 17.0098 13.928 9.34064 24.069 5.46926C32.6486 2.19222 42.0701 2.09031 49.6373 2.00542C51.4437 1.98841 53.1487 1.9658 54.6626 1.90351C66.9453 1.39414 123.811 0.907378 124.387 0.901709L199.658 0.516846C200.835 0.562128 202.061 0.596072 203.356 0.630085C218.037 1.00928 242.614 1.64316 249.734 28.2561C252.382 38.1495 253.682 45.315 253.949 51.4959C254.295 59.4137 252.888 65.7076 249.654 70.7281C244.245 79.1215 233.672 83.9947 217.328 85.6248C216.7 85.6587 158.843 88.545 128.958 88.545C125.868 88.545 122.793 88.545 119.734 88.5568C116.702 88.5568 113.686 88.5678 110.67 88.5678H110.632Z" fill="#003624"/>
<path d="M199.082 2.2278C212.896 2.79314 240.265 1.05821 247.722 28.5901C255.178 56.122 256.838 79.3913 216.505 83.3656C216.505 83.3656 158.924 86.22 128.971 86.22C122.862 86.22 116.822 86.237 110.797 86.237C87.2856 86.237 63.9799 85.9709 37.5253 83.3656C-2.80707 79.3913 -1.14768 56.122 6.30892 28.5901C13.7656 1.05821 41.5205 4.15116 55.3292 3.58027C67.6374 3.07587 124.437 2.59916 124.437 2.59916L199.077 2.22225M199.114 0.00506328H199.066L124.426 0.381974C123.85 0.381974 67.4415 0.858682 55.2448 1.36308C53.7595 1.42402 52.0739 1.44067 50.2928 1.46288C42.7095 1.54602 33.2659 1.64575 24.5885 4.91608C14.1936 8.83496 7.35532 16.5951 4.27432 27.9803C1.62673 37.7526 0.326708 44.8475 0.051948 50.9893C-0.302134 58.9933 1.15112 65.3785 4.49631 70.5004C10.0452 79.0088 20.7836 83.9364 37.3245 85.566C64.3131 88.2268 88.4164 88.4482 110.792 88.4482C113.793 88.4482 116.8 88.4482 119.818 88.4374C122.851 88.4374 125.9 88.4265 128.965 88.4265C158.623 88.4265 216.025 85.5992 216.601 85.5714H216.648L216.696 85.566C233.237 83.9364 243.975 79.0088 249.524 70.5004C256.816 59.3203 253.942 43.4563 249.746 27.9748C246.581 16.2791 239.542 8.22528 228.824 4.03477C219.909 0.548257 210 0.298834 202.76 0.110344C201.476 0.0771012 200.266 0.04941 199.156 -0.000488281H199.109L199.114 0.00506328Z" fill="#117653"/>
</svg>
