<svg width="340" height="180" viewBox="0 0 340 180" fill="none" xmlns="http://www.w3.org/2000/svg">
<path d="M289.36 174.028C342.954 165.782 340.749 117.502 330.841 60.377C320.932 3.25209 284.557 6.86336 266.207 5.67871L167.024 6.46075C167.024 6.46075 91.5413 7.43834 75.1928 8.49642C56.8368 9.66955 19.9626 3.26362 10.0541 60.3885C0.14562 117.513 -2.0594 165.794 51.535 174.04C95.6915 180.837 133.247 179.964 173.05 179.964C212.852 179.964 289.367 174.04 289.367 174.04L289.36 174.028Z" fill="#135E45"/>
<path d="M148.598 169.369C118.511 169.369 86.1056 168.937 49.8289 163.752C28.009 160.635 13.8939 151.316 6.67284 135.265C-2.81063 114.171 1.01687 83.7677 6.56614 54.0469C10.5858 32.53 19.493 17.8643 33.0318 10.4612C44.486 4.19451 57.0642 3.99964 67.1668 3.8373C69.5784 3.80477 71.8546 3.76154 73.8758 3.64243C90.2738 2.66836 166.192 1.73753 166.961 1.72669L267.452 0.990723C269.023 1.07732 270.66 1.14223 272.389 1.20727C291.989 1.9324 324.801 3.14456 334.306 54.036C337.841 72.9552 339.577 86.6575 339.933 98.4773C340.395 113.618 338.517 125.654 334.199 135.255C326.978 151.305 312.862 160.624 291.043 163.742C290.204 163.806 212.962 169.326 173.064 169.326C168.939 169.326 164.833 169.326 160.75 169.348C156.701 169.348 152.675 169.369 148.648 169.369H148.598Z" fill="#00583A"/>
<path d="M266.489 4.26693C284.98 5.34947 321.616 2.02728 331.597 54.7476C341.579 107.468 343.8 152.026 289.811 159.637C289.811 159.637 212.734 165.102 172.638 165.102C164.462 165.102 156.376 165.135 148.311 165.135C116.839 165.135 85.6428 164.625 50.2309 159.637C-3.75751 152.026 -1.53627 107.468 8.44505 54.7476C18.4265 2.02728 55.5788 7.94993 74.0631 6.85675C90.5386 5.89088 166.57 4.97804 166.57 4.97804L266.482 4.2563M266.531 0.0106306H266.467L166.555 0.732372C165.784 0.732372 90.2764 1.64521 73.9501 2.61108C71.9619 2.72776 69.7055 2.75966 67.3214 2.80218C57.1705 2.96139 44.5293 3.15236 32.9139 9.41467C18.9994 16.9189 9.84574 31.7787 5.72156 53.58C2.17752 72.2928 0.437328 85.8789 0.069537 97.6396C-0.404433 112.966 1.54087 125.193 6.0187 135.001C13.4464 151.294 27.8206 160.73 49.9621 163.85C86.0887 168.945 118.353 169.369 148.304 169.369C152.322 169.369 156.348 169.369 160.387 169.348C164.447 169.348 168.528 169.328 172.632 169.328C212.33 169.328 289.168 163.914 289.939 163.86H290.003L290.067 163.85C312.208 160.73 326.582 151.294 334.01 135.001C343.771 113.593 339.924 83.2148 334.307 53.5695C330.07 31.1736 320.647 15.7514 306.302 7.72706C294.367 1.05079 281.104 0.573167 271.412 0.212231C269.693 0.148575 268.073 0.0955495 266.588 0H266.524L266.531 0.0106306Z" fill="#117653"/>
</svg>
