<svg width="720" height="103" viewBox="0 0 720 103" fill="none" xmlns="http://www.w3.org/2000/svg">
<path d="M615.061 99.9511C730.022 95.7411 720.486 57.5 704.038 41.9263C682.784 12.7611 604.757 14.6048 565.396 14L352.643 14.3993C352.643 14.3993 190.727 14.8984 155.659 15.4386C116.285 16.0375 37.1874 12.767 15.933 41.9321C-2.5 53 -10.0512 95.7468 104.912 99.9569C199.63 103.427 280.188 102.981 365.568 102.981C450.945 102.981 615.076 99.9569 615.076 99.9569L615.061 99.9511Z" fill="#135E45"/>
<path d="M316.425 92C252.987 92 184.66 91.7664 108.17 88.9641C62.1626 87.2794 32.401 82.243 17.1753 73.5685C-2.82059 62.1681 5.24971 45.7367 16.9504 29.6741C25.4258 18.0454 44.2067 10.1193 72.7532 6.11828C96.9045 2.73148 123.426 2.62616 144.727 2.53843C149.812 2.52085 154.611 2.49749 158.873 2.43311C193.448 1.90668 353.523 1.40361 355.143 1.39775L567.028 1C570.343 1.0468 573.794 1.08188 577.439 1.11703C618.766 1.50893 687.949 2.16403 707.99 29.6682C715.446 39.8931 719.106 47.2985 719.856 53.6865C720.831 61.8695 716.871 68.3741 707.766 73.5627C692.54 82.2373 662.777 87.2737 616.77 88.9584C615.002 88.9934 452.138 91.9764 368.013 91.9764C359.314 91.9764 350.657 91.9764 342.047 91.9886C333.511 91.9886 325.022 92 316.531 92H316.425Z" fill="#00583A"/>
<path d="M564.329 2.34295C603.487 2.93738 681.069 1.11317 702.206 30.0617C723.343 59.0104 728.047 83.4771 613.718 87.6559C613.718 87.6559 450.496 90.6572 365.587 90.6572C348.271 90.6572 331.149 90.675 314.071 90.675C247.425 90.675 181.361 90.3952 106.371 87.6559C-7.95706 83.4771 -3.25328 59.0104 17.8836 30.0617C39.0207 1.11317 117.696 4.36528 156.839 3.76501C191.729 3.23466 352.736 2.73342 352.736 2.73342L564.315 2.33712M564.419 0.00583723H564.284L352.705 0.402143C351.072 0.402143 191.173 0.903381 156.6 1.43374C152.39 1.4978 147.612 1.51532 142.563 1.53867C121.067 1.62609 94.2974 1.73095 69.7 5.16956C40.2341 9.29009 20.8498 17.4496 12.1162 29.4206C4.61122 39.6957 0.926105 47.1558 0.147255 53.6136C-0.856447 62.0295 3.26302 68.7432 12.7455 74.1287C28.4747 83.0749 58.9143 88.256 105.802 89.9695C182.305 92.7672 250.63 93 314.056 93C322.564 93 331.089 93 339.643 92.9886C348.24 92.9886 356.884 92.9772 365.573 92.9772C449.641 92.9772 612.356 90.0044 613.988 89.9752H614.124L614.259 89.9695C661.147 88.256 691.585 83.0749 707.315 74.1287C727.987 62.3733 719.838 45.6929 707.944 29.4148C698.972 17.1173 679.018 8.64904 648.638 4.2429C623.366 0.576982 595.279 0.314724 574.755 0.116536C571.115 0.081582 567.685 0.0524659 564.539 0H564.404L564.419 0.00583723Z" fill="#117653"/>
</svg>
