<svg width="340" height="100" viewBox="0 0 340 100" fill="none" xmlns="http://www.w3.org/2000/svg">
<path d="M289.818 96.9616C343.806 92.7663 341.585 68.2025 331.603 39.1393C321.622 10.076 284.979 11.9133 266.495 11.3105L166.583 11.7084C166.583 11.7084 90.5446 12.2058 74.076 12.7441C55.585 13.341 18.4397 10.0818 8.45832 39.1452C-1.523 68.2082 -3.74423 92.772 50.2442 96.9673C94.7254 100.426 132.557 99.9812 172.652 99.9812C212.747 99.9812 289.825 96.9673 289.825 96.9673L289.818 96.9616Z" fill="#04633F"/>
<path d="M148.313 92.2041C118.397 92.2041 86.1758 91.9704 50.1053 89.1673C28.4095 87.4821 14.3747 82.4441 7.19469 73.7668C-2.23485 62.363 1.57088 45.9264 7.0886 29.8588C11.0854 18.2265 19.9419 10.2979 33.4037 6.29566C44.7928 2.9078 57.2995 2.80245 67.3447 2.71469C69.7425 2.69711 72.0059 2.67373 74.0156 2.60934C90.3204 2.08274 165.807 1.57952 166.571 1.57366L266.491 1.17578C268.054 1.22259 269.681 1.25769 271.4 1.29285C290.889 1.68487 323.514 2.34018 332.965 29.853C336.48 40.081 338.206 47.4887 338.56 53.8787C339.02 62.0642 337.152 68.5709 332.859 73.7611C325.679 82.4384 311.643 87.4763 289.948 89.1616C289.114 89.1966 212.311 92.1805 172.64 92.1805C168.538 92.1805 164.456 92.1805 160.395 92.1927C156.37 92.1927 152.367 92.2041 148.363 92.2041H148.313Z" fill="url(#paint0_linear_33_17973)"/>
<path d="M266.489 2.35224C284.98 2.94902 321.616 1.11759 331.597 30.1809C341.579 59.2443 343.8 83.8081 289.811 88.0034C289.811 88.0034 212.734 91.0166 172.638 91.0166C164.462 91.0166 156.376 91.0345 148.311 91.0345C116.839 91.0345 85.6428 90.7536 50.2309 88.0034C-3.75751 83.8081 -1.53627 59.2443 8.44505 30.1809C18.4265 1.11759 55.5788 4.38258 74.0631 3.77994C90.5386 3.24749 166.57 2.74426 166.57 2.74426L266.482 2.34638M266.531 0.00586038H266.467L166.555 0.403738C165.784 0.403738 90.2764 0.906963 73.9501 1.43942C71.9619 1.50374 69.7055 1.52132 67.3214 1.54477C57.1705 1.63253 44.5293 1.73781 32.9139 5.19006C18.9994 9.32693 9.84574 17.5188 5.72156 29.5373C2.17752 39.8531 0.437328 47.3428 0.069537 53.8261C-0.404433 62.2754 1.54087 69.0158 6.0187 74.4226C13.4464 83.4043 27.8206 88.6059 49.9621 90.3262C86.0887 93.135 118.353 93.3687 148.304 93.3687C152.322 93.3687 156.348 93.3687 160.387 93.3573C164.447 93.3573 168.528 93.3459 172.632 93.3459C212.33 93.3459 289.168 90.3613 289.939 90.332H290.003L290.067 90.3262C312.208 88.6059 326.582 83.4043 334.01 74.4226C343.771 62.6206 339.924 45.8741 334.307 29.5315C330.07 17.1852 320.647 8.68333 306.302 4.25972C294.367 0.57927 281.104 0.315972 271.412 0.116998C269.693 0.0819055 268.073 0.0526739 266.588 0H266.524L266.531 0.00586038Z" fill="#003D28"/>
<path d="M173.185 48.9113C232.882 48.9113 288.208 44.4994 333.616 36.9864C332.95 34.7746 332.222 32.5277 331.437 30.2515C321.455 1.1882 284.812 3.02556 266.327 2.42285L166.415 2.82073C166.415 2.82073 90.377 3.31809 73.9092 3.85641C55.4175 4.45326 18.2722 1.19406 8.29085 30.2574C7.63299 32.165 7.01756 34.0491 6.4375 35.9156C52.9841 44.084 110.687 48.9172 173.185 48.9172V48.9113Z" fill="url(#paint1_radial_33_17973)"/>
<path opacity="0.5" d="M292.267 13.9027C292.741 14.1542 292.861 14.6107 293.3 14.9208C293.93 15.3655 294.799 15.6581 295.55 15.9331C297.141 16.5065 299.086 17.6533 300.847 17.4719C302.496 17.3081 303.486 16.0969 302.708 14.7921C301.739 13.183 299.051 12.6797 297.057 12.4457C296.066 12.3287 295.097 12.317 294.127 12.5627C293.25 12.7851 293.031 13.2882 292.275 13.6159C292.132 13.6745 292.154 13.8383 292.275 13.9027H292.267Z" fill="#FEFFFF"/>
<path opacity="0.5" d="M305.977 19.7192C306.076 23.8267 309.486 27.6126 311.29 31.334C313.087 35.032 313.603 41.1934 318.562 42.9605C320.38 43.61 322.106 43.5456 323.627 42.4221C328.755 38.613 324.801 31.6266 322.297 27.5013C319.793 23.3762 315.612 18.0398 309.826 17.3025C307.944 17.0627 305.935 17.9404 305.977 19.725V19.7192Z" fill="#FEFFFF"/>
<defs>
<linearGradient id="paint0_linear_33_17973" x1="169.811" y1="-2.17698" x2="170.063" y2="91.5026" gradientUnits="userSpaceOnUse">
<stop stop-color="#FFFF0E"/>
<stop offset="1" stop-color="#729A22"/>
</linearGradient>
<radialGradient id="paint1_radial_33_17973" cx="0" cy="0" r="1" gradientUnits="userSpaceOnUse" gradientTransform="translate(-101.016 25.67) scale(385.849 319.159)">
<stop stop-color="#EBF7FE"/>
<stop offset="1" stop-color="#FEFFFF" stop-opacity="0"/>
</radialGradient>
</defs>
</svg>
