<svg width="172" height="122" viewBox="0 0 172 122" fill="none" xmlns="http://www.w3.org/2000/svg">
<path d="M40 10H50V20H40V10Z" fill="black"/>
<path d="M50 10H60V20H50V10Z" fill="black"/>
<path d="M60 0H70V10H60V0Z" fill="black"/>
<path d="M70 0H80V10H70V0Z" fill="black"/>
<path d="M80 0H90V10H80V0Z" fill="black"/>
<path d="M90 0H100V10H90V0Z" fill="black"/>
<path d="M91 10H101V20H91V10Z" fill="black"/>
<path d="M81 20H91V30H81V20Z" fill="black"/>
<path d="M81 30H91V40H81V30Z" fill="black"/>
<path d="M91 20H101V10H121V20H131V30H121V50H131V30H141V50V60H121H111V50H101V30H91V20Z" fill="#FFFEFF"/>
<path d="M81 40H91V50H81V40Z" fill="black"/>
<path d="M91 50H101V60H91V50Z" fill="black"/>
<path d="M101 50H91V30H101V50H111V60H101V50Z" fill="#ADE1D9"/>
<path d="M121 30H131V40H121V30Z" fill="black"/>
<path d="M121 40H131V50H121V40Z" fill="black"/>
<path d="M100 0H111V10H100V0Z" fill="black"/>
<path d="M111 0H121V10H111V0Z" fill="black"/>
<path d="M121 10H131V20H121V10Z" fill="black"/>
<path d="M131 20H141V30H131V20Z" fill="black"/>
<path d="M141 30H151V40H141V30Z" fill="black"/>
<path d="M141 40H151V50H141V40Z" fill="black"/>
<path d="M141 50H151V60H141V50Z" fill="black"/>
<path d="M101 60H111V70H101V60Z" fill="black"/>
<path d="M111 60H121V70H111V60Z" fill="black"/>
<path d="M121 60H131V70H121V60Z" fill="black"/>
<path d="M131 60H141V70H131V60Z" fill="black"/>
<path d="M141 60H151V70H141V60Z" fill="black"/>
<path d="M151 60H162V70H151V60Z" fill="black"/>
<path d="M162 70H172V80H162V70Z" fill="black"/>
<path d="M152 80H162V90H152V80Z" fill="black"/>
<path d="M152 90H162V100H152V90Z" fill="black"/>
<path d="M142 80H152V90H142V80Z" fill="black"/>
<path d="M132 80H142V90H132V80Z" fill="black"/>
<path d="M122 80H132V90H122V80Z" fill="black"/>
<path d="M112 80H122V90H112V80Z" fill="black"/>
<path d="M101 80H112V90H101V80Z" fill="black"/>
<path d="M91 70H101V80H91V70Z" fill="black"/>
<path d="M91 80H101V70H162V80H101V90H152V100H101V90H91V80Z" fill="#D40207"/>
<path d="M81 80H91V90H81V80Z" fill="black"/>
<path d="M91 90H101V100H91V90Z" fill="black"/>
<path d="M101 100H112V112H101V100Z" fill="black"/>
<path d="M112 100H122V112H112V100Z" fill="black"/>
<path d="M122 100H132V112H122V100Z" fill="black"/>
<path d="M132 100H142V112H132V100Z" fill="black"/>
<path d="M142 100H152V112H142V100Z" fill="black"/>
<path d="M91 112H102V122H91V112Z" fill="black"/>
<path d="M81 112H91V122H81V112Z" fill="black"/>
<path d="M71 112H81V122H71V112Z" fill="black"/>
<path d="M61 112H71V122H61V112Z" fill="black"/>
<path d="M51 112H61V122H51V112Z" fill="black"/>
<path d="M41 102H51V112H41V102Z" fill="black"/>
<path d="M31 102H41V112H31V102Z" fill="black"/>
<path d="M21 90H31V102H21V90Z" fill="black"/>
<path d="M30 20H40V30H30V20Z" fill="black"/>
<path d="M20 30H30V40H20V30Z" fill="black"/>
<path d="M10 40H20V50H10V40Z" fill="black"/>
<path d="M10 50H20V60H10V50Z" fill="black"/>
<path d="M20 50H30V60H20V50Z" fill="black"/>
<path d="M10 70H60V80H10V70Z" fill="#F8E3B6"/>
<path d="M10 60H60V70H50V80H20V70H10V60Z" fill="white"/>
<path d="M30 50H40V60H30V50Z" fill="black"/>
<path d="M40 50H50V60H40V50Z" fill="black"/>
<path d="M50 50H60V60H50V50Z" fill="black"/>
<path d="M60 60H70V70H60V60Z" fill="black"/>
<path d="M60 70H70V80H60V70Z" fill="black"/>
<path d="M51 80H61V90H51V80Z" fill="black"/>
<path d="M41 80H51V90H41V80Z" fill="black"/>
<path d="M31 80H41V90H31V80Z" fill="black"/>
<path d="M21 80H31V90H21V80Z" fill="black"/>
<path d="M10 80H21V90H10V80Z" fill="black"/>
<path d="M0 70H10V80H0V70Z" fill="black"/>
<path d="M0 60H10V70H0V60Z" fill="black"/>
<path d="M60.4 10H91V20H60.4V30H40V40H30V30H40V20H60.4V10Z" fill="#FDE4BB"/>
<path d="M60 20H81V50H91V60H101V70H91V80H70V60H60V50H20V40H40V30H60V20Z" fill="#FEC400"/>
<path d="M61 80H81V90H91V100H101V112H51V102H31V90H61V80Z" fill="#F57B00"/>
</svg>
