<svg width="171" height="122" viewBox="0 0 171 122" fill="none" xmlns="http://www.w3.org/2000/svg">
<path d="M39 10H49V20H39V10Z" fill="black"/>
<path d="M49 10H59V20H49V10Z" fill="black"/>
<path d="M59 0H69V10H59V0Z" fill="black"/>
<path d="M69 0H79V10H69V0Z" fill="black"/>
<path d="M79 0H89V10H79V0Z" fill="black"/>
<path d="M89 0H99V10H89V0Z" fill="black"/>
<path d="M90 10H100V20H90V10Z" fill="black"/>
<path d="M80 20H90V30H80V20Z" fill="black"/>
<path d="M80 30H90V40H80V30Z" fill="black"/>
<path d="M90 20H100V10H120V20H130V30H120V50H130V30H140V50V60H120H110V50H100V30H90V20Z" fill="#FFFEFF"/>
<path d="M80 40H90V50H80V40Z" fill="black"/>
<path d="M90 50H100V60H90V50Z" fill="black"/>
<path d="M100 50H90V30H100V50H110V60H100V50Z" fill="#ADE1D9"/>
<path d="M120 30H130V40H120V30Z" fill="black"/>
<path d="M120 40H130V50H120V40Z" fill="black"/>
<path d="M99 0H110V10H99V0Z" fill="black"/>
<path d="M110 0H120V10H110V0Z" fill="black"/>
<path d="M120 10H130V20H120V10Z" fill="black"/>
<path d="M130 20H140V30H130V20Z" fill="black"/>
<path d="M140 30H150V40H140V30Z" fill="black"/>
<path d="M140 40H150V50H140V40Z" fill="black"/>
<path d="M140 50H150V60H140V50Z" fill="black"/>
<path d="M100 60H110V70H100V60Z" fill="black"/>
<path d="M110 60H120V70H110V60Z" fill="black"/>
<path d="M120 60H130V70H120V60Z" fill="black"/>
<path d="M130 60H140V70H130V60Z" fill="black"/>
<path d="M140 60H150V70H140V60Z" fill="black"/>
<path d="M150 60H161V70H150V60Z" fill="black"/>
<path d="M161 70H171V80H161V70Z" fill="black"/>
<path d="M151 80H161V90H151V80Z" fill="black"/>
<path d="M151 90H161V100H151V90Z" fill="black"/>
<path d="M141 80H151V90H141V80Z" fill="black"/>
<path d="M131 80H141V90H131V80Z" fill="black"/>
<path d="M121 80H131V90H121V80Z" fill="black"/>
<path d="M111 80H121V90H111V80Z" fill="black"/>
<path d="M100 80H111V90H100V80Z" fill="black"/>
<path d="M90 70H100V80H90V70Z" fill="black"/>
<path d="M90 80H100V70H161V80H100V90H151V100H100V90H90V80Z" fill="#D40207"/>
<path d="M80 80H90V90H80V80Z" fill="black"/>
<path d="M90 90H100V100H90V90Z" fill="black"/>
<path d="M100 100H111V112H100V100Z" fill="black"/>
<path d="M111 100H121V112H111V100Z" fill="black"/>
<path d="M121 100H131V112H121V100Z" fill="black"/>
<path d="M131 100H141V112H131V100Z" fill="black"/>
<path d="M141 100H151V112H141V100Z" fill="black"/>
<path d="M90 112H101V122H90V112Z" fill="black"/>
<path d="M80 112H90V122H80V112Z" fill="black"/>
<path d="M70 112H80V122H70V112Z" fill="black"/>
<path d="M60 112H70V122H60V112Z" fill="black"/>
<path d="M50 112H60V122H50V112Z" fill="black"/>
<path d="M40 102H50V112H40V102Z" fill="black"/>
<path d="M30 102H40V112H30V102Z" fill="black"/>
<path d="M20 92H30V102H20V92Z" fill="black"/>
<path d="M20 80H30V92H20V80Z" fill="black"/>
<path d="M30 80H40V90H30V80Z" fill="black"/>
<path d="M40 80H50V90H40V80Z" fill="black"/>
<path d="M50 70H60V80H50V70Z" fill="black"/>
<path d="M50 60H60V70H50V80H20V70H10V60H20V70H50V60Z" fill="#F9D9A8"/>
<path d="M60 60H70V70H60V60Z" fill="black"/>
<path d="M60 50H70V60H60V50Z" fill="black"/>
<path d="M50 40H60V50H50V40Z" fill="black"/>
<path d="M10 40H50V50H60V60H50V70H20V60H10V40Z" fill="white"/>
<path d="M40 30H50V40H40V30Z" fill="black"/>
<path d="M29 20H39V30H29V20Z" fill="black"/>
<path d="M30 30H40V40H30V30Z" fill="black"/>
<path d="M20 30H30V40H20V30Z" fill="black"/>
<path d="M10 30H20V40H10V30Z" fill="black"/>
<path d="M0 40H10V52H0V40Z" fill="black"/>
<path d="M0 52H10V62H0V52Z" fill="black"/>
<path d="M0 62H10V70H0V62Z" fill="black"/>
<path d="M10 70H20V80H10V70Z" fill="black"/>
<path d="M59.4 10H90V20H59.4V30H39V20H59.4V10Z" fill="#FDE4BB"/>
<path d="M59 20H80V50H90V60H100V70H90V80H60V70H70V50H60V40H50V30H59V20Z" fill="#FEC400"/>
<path d="M50 80H80V90H90V100H100V112H50V102H30V90H50V80Z" fill="#F57B00"/>
</svg>
